<svg xmlns="http://www.w3.org/2000/svg" viewBox="0 0 1110.2 553.6">
    <defs>
        <style>.a{fill:none;stroke:#020202;stroke-miterlimit:10;stroke-width:3px;}</style>
    </defs>
    <path class="a" d="M-227,32c31.9,6.8,29.5,18,65,25,26.3,5.2,48.4,3.2,73,1A361.9,361.9,0,0,0-34,48s14.5-3.8,40-17c8.4-4.3,15.5-8.6,16-15,.3-3.6-1.5-8.1-5-10-5.1-2.8-12.7.9-27.8,8.3-8.2,4.1-12.8,6.9-16.4,4.8a6.8,6.8,0,0,1-3.3-6.4c.3-2.8,2.9-4.4,9.8-8.4C-11.9-.8-6.8-3.6-7-3.8S-15.7.1-27.9,3.8A128,128,0,0,1-43.6,7.7c-12.2,2.1-20.3,3.5-24-.9-2.1-2.6-2.1-6.6-1.1-9.3,2.2-5.3,9-6.7,14.2-7.7s12.5-1.2,12.8.3-8.5,5.3-14.8,7.7a142.6,142.6,0,0,1-24.3,7c-13.2,2.5-19.8,3.7-23.3.3s-2.4-12.4-2.1-13.9c2-9,9.7-15.7,20.1-24.9,4.6-4,7.5-6.1,6.9-7.5s-8.4-.8-16.1.5-12.6,2.1-19.2,4.7c-12.3,4.8-18,11-18.8,10.1s9-13.5,21.8-23.9c6.4-5.2,12.9-10.3,23-14.2a76.2,76.2,0,0,1,20.7-4.4,82.6,82.6,0,0,1,25,.6c8.4,1.6,14.2,4.2,23.2,8.4s10.5,5.7,24,13.2c16.3,9,24.5,13.5,30.7,14.5,12.9,2.3,23.7-1.1,29-2.9,10.5-3.5,12.4-7,27.7-16.3,17.6-10.9,27-16.6,40.3-18.8s26.1.6,35.2,2.8a121,121,0,0,1,28.8,11.4c12.8,7,23.1,12.6,30.7,24.2,5.8,8.9,7.3,17,10.1,32.4a182.9,182.9,0,0,1,2.8,32.3c.2,32,.3,50.3-12.1,64-6.4,7.1-13.6,10.1-25.2,14.9-14.3,6-28.9,8.4-46.2,11.3s-24.6,3-29.6,9.7c-3.7,5-4.8,12.3-5.5,16.7-1.3,8.7.4,12-1.9,18.8s-4.8,8.7-7.5,11.8c-17.4,20.2-22.6,28-22.2,28.4s3.5-2.2,6.2-5.3c11.7-13,10.2-33.1,9.1-45.7-1.6-18.5-5.9-22.2-2.9-34a44.9,44.9,0,0,1,9.7-19.1c9-10.6,16.8-9.3,23.3-18s5.4-15.4,5.4-25.2c-.1-20.4-8.4-36.3-19.2-56.6a97.3,97.3,0,0,0-12.5-21.2c-8.3-10.5-12.7-11.1-14.7-11.1-4.3,0-7.8,3.2-11.6,7.7C73.9-9.4,69.2,2,61.4,26.4c-4.2,13-5.9,19.3-12.1,24.9A45.5,45.5,0,0,1,36,59.7c-5.8,2.2-8.2,1.5-12,3.7-5.7,3.4-7.9,9.7-9.2,14-6.4,20.2-8.7,41.8-8.7,41.8C3.3,144.8,2,157.6,2,169.7c0,4.6.2,10.8-.4,19.9C.5,207.9-2,215.4-3.1,218.4s-5.1,15.8-7.9,15.3-2.6-14.6-2-22.4c.6-9.5,2.4-16.6,11.2-43.2C6,144.3,8.3,138.9,9.7,135.7c6.2-14.4,9.4-21.8,16.4-29.1A65.5,65.5,0,0,1,50.9,90.5c7.5-2.6,13.2-3.1,23.1-3.7,18.6-1.2,22.9,1.4,39.7.9,11.5-.4,20.6-.6,31.8-4.3,14.9-5,16.4-10.4,36.5-18.5,10.8-4.5,16.2-6.7,23.8-7.1,16.8-.9,30,7,37.5,11.5,9.4,5.7,14.8,11.4,19.9,17s7.2,9.4,7.7,11.5c1.4,6.6-2.3,10.1-3.5,18.8-.9,6.8.5,12,2.1,18.1,4.3,16.6,16.2,25.6,32.5,43.4s10.1,14.4,25.2,31c24.7,27.2,37.1,40.8,52.4,50.4a56.2,56.2,0,0,1,18.7,20.2c1.2,2.4,4.6,8.9,2.3,11.5s-9.4-.2-10.9-.8c-16-6.4-19.4-28.3-34.8-60.1-3.3-6.7-.8-.9-18.9-33.4-20.2-36.2-24-44.7-26.7-56.3-3.9-16.8-5.2-38.8.5-40.8,1.3-.4,1.9.5,5,1.7,9.3,3.7,22.4,3.4,30.6-2.3,2.7-1.9,4.4-4,5.9-3.3s1.7,6.5,1.5,9c-2.4,29-4.1,34.9-4.1,34.9-7.8,28.7-11.8,39.8-10.9,40.2s7.4-12.7,18.9-36.4C369.6,117,376,103.7,376.3,103c7.2-16.3,19.9-45,24.4-83.2,2.3-19.3,5.2-44.2-3.6-73.4-7.8-26.2-21.6-44.2-20.9-44.6S395-79.7,407-49.8c6,15.1,8.9,29.3,21.1,34.7,1.3.6,8,3.6,12.2.7,5.9-4.2,2.8-17.8,1.3-24.4-1.2-4.9-3.8-14.3-13.8-30.8-14-23.1-27.9-36.1-32.5-40.2s-15.8-13.7-16.9-12.6,11.1,15.7,21.7,26.3,21.2,20.9,27,17.8c1.8-.9,2.6-3,3.1-5.2,5.4-24.6-29.4-60.7-39.3-71.1-5.4-5.6-12.5-12.3-15.5-10.6-1.3.8-1.3,2.8-1.4,3.8-.3,11.9,17.3,22.2,26.1,27.4,7.1,4.1,15,8.8,17.8,6.2s-.5-10.2-2.3-14.3c-4.7-11.1-11.9-18.2-17.2-23A169.8,169.8,0,0,0,362.8-190c-11.4-5.8-21.9-11-37-13-8.1-1-17.1-2.1-27.4,1.7-8,2.9-13.7,7.7-19.9,12.7-11.5,9.6-11.1,13.2-18.4,16.1s-18,4.5-24.5-2.4c-3.9-4.2-6.4-11.1-4.2-13.4s14,2.4,20.8,8.2c4,3.3,11.8,9.9,12.5,19.4s-6.1,11.1-9.9,25.9a58.5,58.5,0,0,0-.9,24.9c2.3,11.6,6.6,11.7,9.1,23.6,1.9,9.4.8,17.1-.3,25-1.5,10.8-8.8,16.9-5.6,22.1,1.7,2.8,5.2,3.9,5,6.5s-3.2,2.8-3.7,5.4,3.1,7.2,6.5,8.9a12.9,12.9,0,0,0,13-.6c5.3-3.7,6.5-11.2,4.2-15.6-.9-1.9-3.2-4.5-5.2-4.1s-2.3,1.9-2.6,3.2.9,4.2,3.2,7.2c5.2,6.6,7.6,10,8.6,9.5s-.6-3.4,0-7.8,3.5-7.9,5.5-10.4c9.2-11.5,6.1-16.7,17.2-30.5,3.3-4.1,3.1-3.2,6.9-7.7s11-13.4,14.9-24.4a58.1,58.1,0,0,0,3-30.7c-.9-4.5-3.6-18.8-10.5-22.9a3.3,3.3,0,0,1-1.7-1.8c-1.1-3.4,5.4-10.3,12.9-12,5.7-1.3,7,1.5,10.6-.5s5.2-7.2,7.2-15.6c.3-1.3.4-2,0-2.5-2-2.4-12.5,2.7-18.8,7-2.2,1.6-10.3,7.5-20,27.7-4,8.3-9.8,20.5-12.8,38a137.9,137.9,0,0,0,0,44.6c2.4,14.9,5.2,32.6,18.8,50.3a91.3,91.3,0,0,0,37.1,28.5c11.7,4.8,20.7,5.4,31,6.6,3.7.4,47.2,5.5,78,16.1C502.8,46,496.2,58,529.9,67.5c22.8,6.5,43.4,5.9,69.7,5.1,23.5-.6,27.2-3,55.1-3.4A467,467,0,0,1,704.8,71c34.2,3.1,51.6,3.7,59.3,9.4,19.8,14.5,23.3,46.7,19.1,68.5-10.5,53.5-79.1,97.9-123.6,79.6-29.6-12.2-52.2-53.6-39.8-73.5,10-16.2,44.8-21.3,61.2-5.1s6,47.8,4.1,53.1c-7.2,20.4-24.1,40.4-70.4,62.3-51.2,24.1-84.3,25.1-144,37.8-89.5,19-74.2,29.4-131.8,37.8-32.5,4.7-123.2,17.8-212.4-23.5C88.7,299.8,85.1,288.2,54,282.6.3,273-16.8,302.4-76.7,298c-10.2-.8-63.9-5.6-105.2-44-23.7-22-33.3-45.6-47-82.7C-285.6,18.8-295.2-40.1-307.6-39.1c-10.9.9-23.8,48.8-6.1,66.4C-298.5,42.4-274.3,21.9-227,32Z" transform="translate(324 205.4)"/>
</svg>