<?xml version="1.0" encoding="UTF-8"?>
<svg id="Layer_2"
    xmlns="http://www.w3.org/2000/svg" viewBox="0 0 369.61 735.44">
    <defs>
        <style>
      .cls-1 {
        fill: none;
        stroke: #000;
        stroke-miterlimit: 10;
      }
        </style>
    </defs>
    <g id="Layer_1-2" data-name="Layer_1">
        <path class="cls-1" d="M174.61,278.71c0-85.65,0-171.31,0-256.96,0-14.99,6.22-21.21,21.25-21.23,2.5,0,5-.06,7.5.03,8.17.3,14.22,4.93,16.62,12.76,2.79,9.07,5.05,18.34,8.34,27.22,5.61,15.15,15.11,28.14,24.37,41.18,22.86,32.21,45.72,64.43,66.85,97.79,20.37,32.16,32.48,67.77,40.41,104.86,7.17,33.56,10.21,67.51,8.83,101.78-1.36,33.97-6.97,67.23-18.55,99.31-5.69,15.78-25.86,19.79-37.59,7.5-5.05-5.29-5.37-11.8-3.08-18.24,6.73-18.93,11.57-38.29,13.46-58.28,5.9-62.4-1.39-122.49-33.06-177.82-13.17-23.01-31.07-41.58-55.76-52.69-5.86-2.64-6.16-2.55-6.16,3.74,0,132.98-.03,265.96.07,398.95,0,5.97,1.18,11.92,1.58,17.9,1.92,28.76-6.91,53.77-26.22,75.18-28.2,31.25-63.46,48.78-105.1,52.68-28.6,2.68-55.31-3.64-76.83-23.97-18.58-17.55-24.32-39.67-19.34-64.48,5.26-26.22,19.59-47.26,39.42-64.51,30.19-26.27,65.43-39.81,105.62-39.83,7.35,0,14.65.96,21.75,2.83,4.55,1.2,5.73-.15,5.7-4.73-.16-31.83-.08-63.66-.08-95.49,0-55.16,0-110.32,0-165.48Z"/>
    </g>
</svg>